# Blender 5.0.0
# www.blender.org
mtllib arrow.mtl
o arrow
v 1.000000 1.000000 -1.000000
v 1.000000 -1.000000 -1.000000
v 1.000000 1.000000 1.000000
v 1.000000 -1.000000 1.000000
v -1.000000 1.000000 -1.000000
v -1.000000 -1.000000 -1.000000
v -1.000000 1.000000 1.000000
v -1.000000 -1.000000 1.000000
v 2.000000 1.000000 -1.000000
v 2.000000 -1.000000 -1.000000
v -2.000000 1.000000 -1.000000
v -2.000000 -1.000000 -1.000000
v 0.000000 1.000000 -3.000000
v 0.000000 -1.000000 -3.000000
vn -0.0000 1.0000 -0.0000
vn -0.0000 -0.0000 1.0000
vn -1.0000 -0.0000 -0.0000
vn 1.0000 -0.0000 -0.0000
vn 0.7071 -0.0000 -0.7071
vn -0.7071 -0.0000 -0.7071
vn -0.0000 -1.0000 -0.0000
vt 0.625000 0.500000
vt 0.875000 0.500000
vt 0.625000 0.750000
vt 0.375000 1.000000
vt 0.375000 0.750000
vt 0.625000 0.000000
vt 0.375000 0.250000
vt 0.375000 0.000000
vt 0.375000 0.500000
vt 0.625000 0.250000
vt 0.125000 0.500000
vt 0.625000 1.000000
vt 0.125000 0.750000
vt 0.875000 0.750000
s 0
usemtl Material
f 1/1/1 9/1/1 13/2/1
f 3/3/2 8/4/2 4/5/2
f 7/6/3 6/7/3 8/8/3
f 3/3/1 1/1/1 5/2/1
f 1/1/4 4/5/4 2/9/4
f 1/1/1 13/2/1 5/2/1
f 9/1/5 10/9/5 14/9/5
f 9/1/5 14/9/5 13/1/5
f 12/7/6 13/10/6 14/7/6
f 14/9/7 10/9/7 2/9/7
f 12/7/6 11/10/6 13/10/6
f 14/9/7 2/9/7 6/11/7
f 3/3/2 7/12/2 8/4/2
f 2/9/2 9/1/2 1/1/2
f 1/1/4 3/3/4 4/5/4
f 2/9/7 4/5/7 8/13/7
f 13/2/1 11/2/1 5/2/1
f 5/10/2 12/7/2 6/7/2
f 7/6/3 5/10/3 6/7/3
f 5/2/1 7/14/1 3/3/1
f 6/11/7 12/11/7 14/9/7
f 2/9/7 8/13/7 6/11/7
f 2/9/2 10/9/2 9/1/2
f 5/10/2 11/10/2 12/7/2
